<svg version="1.1" viewBox="0.0 0.0 125.74540682414698 193.18372703412072" fill="none" stroke="none" stroke-linecap="square" stroke-miterlimit="10" xmlns:xlink="http://www.w3.org/1999/xlink" xmlns="http://www.w3.org/2000/svg"><clipPath id="p.0"><path d="m0 0l125.74541 0l0 193.18373l-125.74541 0l0 -193.18373z" clip-rule="nonzero"/></clipPath><g clip-path="url(#p.0)"><path fill="#000000" fill-opacity="0.0" d="m0 0l125.74541 0l0 193.18373l-125.74541 0z" fill-rule="evenodd"/><path fill="#ff9900" d="m9.71673 0l38.865753 0l0 0c2.5770378 0 5.048527 1.023724 6.8707657 2.8459642c1.8222427 1.8222406 2.8459663 4.293729 2.8459663 6.8707657l0 182.94469c0 2.593994E-4 -2.1743774E-4 4.7302246E-4 -4.8828125E-4 4.7302246E-4l-58.298725 -4.7302246E-4l8.3685914E-20 0c-2.683147E-4 0 -4.8582678E-4 -2.2888184E-4 -4.8582678E-4 -4.8828125E-4l4.8582678E-4 -182.9442l0 0c0 -5.366402 4.350328 -9.71673 9.71673 -9.71673z" fill-rule="evenodd"/><path stroke="#ff9900" stroke-width="1.0" stroke-linejoin="round" stroke-linecap="butt" d="m9.71673 0l38.865753 0l0 0c2.5770378 0 5.048527 1.023724 6.8707657 2.8459642c1.8222427 1.8222406 2.8459663 4.293729 2.8459663 6.8707657l0 182.94469c0 2.593994E-4 -2.1743774E-4 4.7302246E-4 -4.8828125E-4 4.7302246E-4l-58.298725 -4.7302246E-4l8.3685914E-20 0c-2.683147E-4 0 -4.8582678E-4 -2.2888184E-4 -4.8582678E-4 -4.8828125E-4l4.8582678E-4 -182.9442l0 0c0 -5.366402 4.350328 -9.71673 9.71673 -9.71673z" fill-rule="evenodd"/><path fill="#ff9900" d="m124.22572 144.07893l0 38.865753l0 0c0 2.5770416 -1.0237274 5.048523 -2.8459625 6.8707733c-1.8222427 1.8222351 -4.2937317 2.8459625 -6.8707657 2.8459625l-63.007683 0c-2.670288E-4 0 -4.8446655E-4 -2.2888184E-4 -4.8446655E-4 -4.8828125E-4l4.8446655E-4 -58.298737l0 0c0 -2.593994E-4 2.1743774E-4 -4.7302246E-4 4.8446655E-4 -4.7302246E-4l63.0072 4.7302246E-4l0 0c5.3664017 0 9.716728 4.350342 9.716728 9.716736z" fill-rule="evenodd"/><path stroke="#ff9900" stroke-width="1.0" stroke-linejoin="round" stroke-linecap="butt" d="m124.22572 144.07893l0 38.865753l0 0c0 2.5770416 -1.0237274 5.048523 -2.8459625 6.8707733c-1.8222427 1.8222351 -4.2937317 2.8459625 -6.8707657 2.8459625l-63.007683 0c-2.670288E-4 0 -4.8446655E-4 -2.2888184E-4 -4.8446655E-4 -4.8828125E-4l4.8446655E-4 -58.298737l0 0c0 -2.593994E-4 2.1743774E-4 -4.7302246E-4 4.8446655E-4 -4.7302246E-4l63.0072 4.7302246E-4l0 0c5.3664017 0 9.716728 4.350342 9.716728 9.716736z" fill-rule="evenodd"/><path fill="#ff0000" d="m125.480316 65.92126l-16.79528 68.44094l-33.590546 0l-16.795277 -68.44094z" fill-rule="evenodd"/><path stroke="#000000" stroke-width="1.0" stroke-linejoin="round" stroke-linecap="butt" d="m125.480316 65.92126l-16.79528 68.44094l-33.590546 0l-16.795277 -68.44094z" fill-rule="evenodd"/><path fill="#f3efcf" d="m60.359764 59.39434l0 0c-0.18402863 -1.840229 0.42017746 -3.6619453 1.5562286 -4.6921234c1.136055 -1.0301819 2.6047134 -1.0881577 3.7827835 -0.14932251l0 0c0.417305 -1.0699883 1.1810989 -1.8087387 2.060341 -1.9927979c0.8792496 -0.18405914 1.7706757 0.20819473 2.4046478 1.0581055l0 0c0.35549164 -0.97011566 1.053505 -1.6219101 1.846344 -1.7240944c0.7928467 -0.10218048 1.5683136 0.3597107 2.0512314 1.221775l0 0c0.64224243 -1.0283203 1.6640778 -1.4612885 2.6233368 -1.1115532c0.95926666 0.34973907 1.68367 1.4193611 1.8597565 2.7460403l0 0c0.78686523 0.2920494 1.4422989 1.0344734 1.7969742 2.0354538c0.3546753 1.0009842 0.37378693 2.1623306 0.05239868 3.1839867l0 0c0.7748337 1.3721924 0.9560852 3.2006264 0.47612 4.8029556c-0.4799652 1.6023331 -1.5490417 2.7378387 -2.808258 2.9827576c-0.008880615 1.5038452 -0.6150055 2.883751 -1.5847473 3.6078491c-0.9697418 0.7240982 -2.15168 0.67931366 -3.0902405 -0.11708832l0 0c-0.39978027 1.801117 -1.5250168 3.126358 -2.8895721 3.4031754c-1.3645554 0.27681732 -2.7238007 -0.54441833 -3.4905014 -2.1088943l0 0c-0.9398041 0.7711334 -2.0674973 0.9932785 -3.1286888 0.6163101c-1.0611916 -0.37696838 -1.9664955 -1.3212891 -2.5116882 -2.6199493l0 0c-0.9603653 0.15292358 -1.8889084 -0.52412415 -2.324791 -1.6951218c-0.43588638 -1.17099 -0.28632736 -2.5866623 0.3744545 -3.5444107l0 0c-0.8566704 -0.68608856 -1.2937965 -2.0475082 -1.0834312 -3.37434c0.21036148 -1.3268318 1.0205498 -2.3184052 2.0080757 -2.4576569z" fill-rule="evenodd"/><path fill="#000000" fill-opacity="0.0" d="m59.416138 65.297264l0 0c0.40426636 0.32376862 0.8712883 0.47063446 1.3383598 0.42088318m0.6117668 4.8187637c0.20085907 -0.031982422 0.3977394 -0.09970856 0.58555984 -0.20143127m5.0545387 2.2049866c-0.1412735 -0.28826904 -0.259552 -0.5963135 -0.35282135 -0.91887665m6.7331314 -0.37545776l0 0c0.072883606 -0.32836914 0.12010956 -0.66633606 0.1408844 -1.008255m4.533928 -2.4823837c0.00944519 -1.6010742 -0.6588669 -3.0670395 -1.7178802 -3.7682114m4.050003 -4.01733c-0.17150879 0.54519653 -0.43332672 1.0288353 -0.7649307 1.4129906m-1.0842819 -6.632572l0 0c0.029220581 0.22016144 0.04273987 0.44363403 0.040382385 0.66731644m-4.523407 -2.301735l0 0c-0.16020966 0.2565155 -0.29219818 0.5431671 -0.39186096 0.85103226m-3.5057526 -0.34882355l0 0c-0.085372925 0.23299026 -0.14913177 0.47953415 -0.18978882 0.73395157m-4.275261 0.20075607l0 0c0.24927521 0.19865417 0.47988892 0.4377594 0.6867752 0.712059m-6.0257187 4.1294136l0 0c0.025363922 0.2536316 0.06544113 0.50413513 0.11985397 0.7491684" fill-rule="evenodd"/><path stroke="#000000" stroke-width="1.0" stroke-linejoin="round" stroke-linecap="butt" d="m60.359764 59.39434l0 0c-0.18402863 -1.840229 0.42017746 -3.6619453 1.5562286 -4.6921234c1.136055 -1.0301819 2.6047134 -1.0881577 3.7827835 -0.14932251l0 0c0.417305 -1.0699883 1.1810989 -1.8087387 2.060341 -1.9927979c0.8792496 -0.18405914 1.7706757 0.20819473 2.4046478 1.0581055l0 0c0.35549164 -0.97011566 1.053505 -1.6219101 1.846344 -1.7240944c0.7928467 -0.10218048 1.5683136 0.3597107 2.0512314 1.221775l0 0c0.64224243 -1.0283203 1.6640778 -1.4612885 2.6233368 -1.1115532c0.95926666 0.34973907 1.68367 1.4193611 1.8597565 2.7460403l0 0c0.78686523 0.2920494 1.4422989 1.0344734 1.7969742 2.0354538c0.3546753 1.0009842 0.37378693 2.1623306 0.05239868 3.1839867l0 0c0.7748337 1.3721924 0.9560852 3.2006264 0.47612 4.8029556c-0.4799652 1.6023331 -1.5490417 2.7378387 -2.808258 2.9827576c-0.008880615 1.5038452 -0.6150055 2.883751 -1.5847473 3.6078491c-0.9697418 0.7240982 -2.15168 0.67931366 -3.0902405 -0.11708832l0 0c-0.39978027 1.801117 -1.5250168 3.126358 -2.8895721 3.4031754c-1.3645554 0.27681732 -2.7238007 -0.54441833 -3.4905014 -2.1088943l0 0c-0.9398041 0.7711334 -2.0674973 0.9932785 -3.1286888 0.6163101c-1.0611916 -0.37696838 -1.9664955 -1.3212891 -2.5116882 -2.6199493l0 0c-0.9603653 0.15292358 -1.8889084 -0.52412415 -2.324791 -1.6951218c-0.43588638 -1.17099 -0.28632736 -2.5866623 0.3744545 -3.5444107l0 0c-0.8566704 -0.68608856 -1.2937965 -2.0475082 -1.0834312 -3.37434c0.21036148 -1.3268318 1.0205498 -2.3184052 2.0080757 -2.4576569z" fill-rule="evenodd"/><path stroke="#000000" stroke-width="1.0" stroke-linejoin="round" stroke-linecap="butt" d="m59.416138 65.297264l0 0c0.40426636 0.32376862 0.8712883 0.47063446 1.3383598 0.42088318m0.6117668 4.8187637c0.20085907 -0.031982422 0.3977394 -0.09970856 0.58555984 -0.20143127m5.0545387 2.2049866c-0.1412735 -0.28826904 -0.259552 -0.5963135 -0.35282135 -0.91887665m6.7331314 -0.37545776l0 0c0.072883606 -0.32836914 0.12010956 -0.66633606 0.1408844 -1.008255m4.533928 -2.4823837c0.00944519 -1.6010742 -0.6588669 -3.0670395 -1.7178802 -3.7682114m4.050003 -4.01733c-0.17150879 0.54519653 -0.43332672 1.0288353 -0.7649307 1.4129906m-1.0842819 -6.632572l0 0c0.029220581 0.22016144 0.04273987 0.44363403 0.040382385 0.66731644m-4.523407 -2.301735l0 0c-0.16020966 0.2565155 -0.29219818 0.5431671 -0.39186096 0.85103226m-3.5057526 -0.34882355l0 0c-0.085372925 0.23299026 -0.14913177 0.47953415 -0.18978882 0.73395157m-4.275261 0.20075607l0 0c0.24927521 0.19865417 0.47988892 0.4377594 0.6867752 0.712059m-6.0257187 4.1294136l0 0c0.025363922 0.2536316 0.06544113 0.50413513 0.11985397 0.7491684" fill-rule="evenodd"/><path fill="#f3efcf" d="m82.53824 59.39434l0 0c-0.18402863 -1.840229 0.42018127 -3.6619453 1.5562363 -4.6921234c1.1360474 -1.0301819 2.6047134 -1.0881577 3.7827759 -0.14932251l0 0c0.417305 -1.0699883 1.1810989 -1.8087387 2.0603485 -1.9927979c0.87924194 -0.18405914 1.770668 0.20819473 2.4046402 1.0581055l0 0c0.35549164 -0.97011566 1.053505 -1.6219101 1.8463516 -1.7240944c0.7928467 -0.10218048 1.5683136 0.3597107 2.0512238 1.221775l0 0c0.64225006 -1.0283203 1.6640778 -1.4612885 2.6233444 -1.1115532c0.95925903 0.34973907 1.6836624 1.4193611 1.8597565 2.7460403l0 0c0.7868576 0.2920494 1.4422989 1.0344734 1.7969666 2.0354538c0.3546753 1.0009842 0.37378693 2.1623306 0.05240631 3.1839867l0 0c0.77482605 1.3721924 0.9560776 3.2006264 0.47611237 4.8029556c-0.4799652 1.6023331 -1.5490341 2.7378387 -2.808258 2.9827576c-0.008872986 1.5038452 -0.61499786 2.883751 -1.5847473 3.6078491c-0.9697418 0.7240982 -2.15168 0.67931366 -3.0902405 -0.11708832l0 0c-0.39977264 1.801117 -1.5250168 3.126358 -2.8895645 3.4031754c-1.3645554 0.27681732 -2.7238083 -0.54441833 -3.4905014 -2.1088943l0 0c-0.9398117 0.7711334 -2.067505 0.9932785 -3.1286926 0.6163101c-1.0611954 -0.37696838 -1.9664917 -1.3212891 -2.5116882 -2.6199493l0 0c-0.9603653 0.15292358 -1.8889084 -0.52412415 -2.324791 -1.6951218c-0.4358902 -1.17099 -0.28632355 -2.5866623 0.3744583 -3.5444107l0 0c-0.8566742 -0.68608856 -1.2938004 -2.0475082 -1.083435 -3.37434c0.2103653 -1.3268318 1.020546 -2.3184052 2.008072 -2.4576569z" fill-rule="evenodd"/><path fill="#000000" fill-opacity="0.0" d="m81.59461 65.297264l0 0c0.40426636 0.32376862 0.8712921 0.47063446 1.3383636 0.42088318m0.611763 4.8187637c0.20085907 -0.031982422 0.39774323 -0.09970856 0.58556366 -0.20143127m5.054535 2.2049866c-0.14126587 -0.28826904 -0.25954437 -0.5963135 -0.35282135 -0.91887665m6.733139 -0.37545776l0 0c0.072883606 -0.32836914 0.12010193 -0.66633606 0.14087677 -1.008255m4.533928 -2.4823837c0.00945282 -1.6010742 -0.65885925 -3.0670395 -1.7178726 -3.7682114m4.0499954 -4.01733c-0.17150116 0.54519653 -0.43332672 1.0288353 -0.7649307 1.4129906m-1.0842819 -6.632572l0 0c0.029220581 0.22016144 0.042747498 0.44363403 0.040382385 0.66731644m-4.5233994 -2.301735l0 0c-0.16020966 0.2565155 -0.2922058 0.5431671 -0.3918686 0.85103226m-3.505745 -0.34882355l0 0c-0.085380554 0.23299026 -0.14913177 0.47953415 -0.18979645 0.73395157m-4.275261 0.20075607l0 0c0.24927521 0.19865417 0.47989655 0.4377594 0.68678284 0.712059m-6.0257263 4.1294136l0 0c0.025367737 0.2536316 0.06544495 0.50413513 0.11985779 0.7491684" fill-rule="evenodd"/><path stroke="#000000" stroke-width="1.0" stroke-linejoin="round" stroke-linecap="butt" d="m82.53824 59.39434l0 0c-0.18402863 -1.840229 0.42018127 -3.6619453 1.5562363 -4.6921234c1.1360474 -1.0301819 2.6047134 -1.0881577 3.7827759 -0.14932251l0 0c0.417305 -1.0699883 1.1810989 -1.8087387 2.0603485 -1.9927979c0.87924194 -0.18405914 1.770668 0.20819473 2.4046402 1.0581055l0 0c0.35549164 -0.97011566 1.053505 -1.6219101 1.8463516 -1.7240944c0.7928467 -0.10218048 1.5683136 0.3597107 2.0512238 1.221775l0 0c0.64225006 -1.0283203 1.6640778 -1.4612885 2.6233444 -1.1115532c0.95925903 0.34973907 1.6836624 1.4193611 1.8597565 2.7460403l0 0c0.7868576 0.2920494 1.4422989 1.0344734 1.7969666 2.0354538c0.3546753 1.0009842 0.37378693 2.1623306 0.05240631 3.1839867l0 0c0.77482605 1.3721924 0.9560776 3.2006264 0.47611237 4.8029556c-0.4799652 1.6023331 -1.5490341 2.7378387 -2.808258 2.9827576c-0.008872986 1.5038452 -0.61499786 2.883751 -1.5847473 3.6078491c-0.9697418 0.7240982 -2.15168 0.67931366 -3.0902405 -0.11708832l0 0c-0.39977264 1.801117 -1.5250168 3.126358 -2.8895645 3.4031754c-1.3645554 0.27681732 -2.7238083 -0.54441833 -3.4905014 -2.1088943l0 0c-0.9398117 0.7711334 -2.067505 0.9932785 -3.1286926 0.6163101c-1.0611954 -0.37696838 -1.9664917 -1.3212891 -2.5116882 -2.6199493l0 0c-0.9603653 0.15292358 -1.8889084 -0.52412415 -2.324791 -1.6951218c-0.4358902 -1.17099 -0.28632355 -2.5866623 0.3744583 -3.5444107l0 0c-0.8566742 -0.68608856 -1.2938004 -2.0475082 -1.083435 -3.37434c0.2103653 -1.3268318 1.020546 -2.3184052 2.008072 -2.4576569z" fill-rule="evenodd"/><path stroke="#000000" stroke-width="1.0" stroke-linejoin="round" stroke-linecap="butt" d="m81.59461 65.297264l0 0c0.40426636 0.32376862 0.8712921 0.47063446 1.3383636 0.42088318m0.611763 4.8187637c0.20085907 -0.031982422 0.39774323 -0.09970856 0.58556366 -0.20143127m5.054535 2.2049866c-0.14126587 -0.28826904 -0.25954437 -0.5963135 -0.35282135 -0.91887665m6.733139 -0.37545776l0 0c0.072883606 -0.32836914 0.12010193 -0.66633606 0.14087677 -1.008255m4.533928 -2.4823837c0.00945282 -1.6010742 -0.65885925 -3.0670395 -1.7178726 -3.7682114m4.0499954 -4.01733c-0.17150116 0.54519653 -0.43332672 1.0288353 -0.7649307 1.4129906m-1.0842819 -6.632572l0 0c0.029220581 0.22016144 0.042747498 0.44363403 0.040382385 0.66731644m-4.5233994 -2.301735l0 0c-0.16020966 0.2565155 -0.2922058 0.5431671 -0.3918686 0.85103226m-3.505745 -0.34882355l0 0c-0.085380554 0.23299026 -0.14913177 0.47953415 -0.18979645 0.73395157m-4.275261 0.20075607l0 0c0.24927521 0.19865417 0.47989655 0.4377594 0.68678284 0.712059m-6.0257263 4.1294136l0 0c0.025367737 0.2536316 0.06544495 0.50413513 0.11985779 0.7491684" fill-rule="evenodd"/><path fill="#f3efcf" d="m103.46213 59.39434l0 0c-0.18402863 -1.840229 0.42017365 -3.6619453 1.5562286 -4.6921234c1.136055 -1.0301819 2.6047134 -1.0881577 3.7827759 -0.14932251l0 0c0.41731262 -1.0699883 1.1810989 -1.8087387 2.0603485 -1.9927979c0.87924194 -0.18405914 1.7706757 0.20819473 2.4046478 1.0581055l0 0c0.35549164 -0.97011566 1.053505 -1.6219101 1.846344 -1.7240944c0.7928467 -0.10218048 1.5683136 0.3597107 2.0512314 1.221775l0 0c0.64224243 -1.0283203 1.6640778 -1.4612885 2.6233368 -1.1115532c0.95926666 0.34973907 1.68367 1.4193611 1.8597565 2.7460403l0 0c0.78686523 0.2920494 1.4422989 1.0344734 1.7969742 2.0354538c0.35466766 1.0009842 0.37378693 2.1623306 0.05239868 3.1839867l0 0c0.77482605 1.3721924 0.9560776 3.2006264 0.47611237 4.8029556c-0.47995758 1.6023331 -1.5490341 2.7378387 -2.808258 2.9827576c-0.008872986 1.5038452 -0.61499786 2.883751 -1.5847397 3.6078491c-0.96974945 0.7240982 -2.1516876 0.67931366 -3.0902405 -0.11708832l0 0c-0.39978027 1.801117 -1.5250168 3.126358 -2.8895721 3.4031754c-1.3645554 0.27681732 -2.7238007 -0.54441833 -3.4905014 -2.1088943l0 0c-0.9398041 0.7711334 -2.0674973 0.9932785 -3.1286926 0.6163101c-1.0611877 -0.37696838 -1.9664917 -1.3212891 -2.5116806 -2.6199493l0 0c-0.9603729 0.15292358 -1.888916 -0.52412415 -2.3247986 -1.6951218c-0.43588257 -1.17099 -0.28632355 -2.5866623 0.3744583 -3.5444107l0 0c-0.8566742 -0.68608856 -1.2938004 -2.0475082 -1.083435 -3.37434c0.2103653 -1.3268318 1.0205536 -2.3184052 2.0080795 -2.4576569z" fill-rule="evenodd"/><path fill="#000000" fill-opacity="0.0" d="m102.5185 65.297264l0 0c0.40426636 0.32376862 0.8712845 0.47063446 1.338356 0.42088318m0.61177063 4.8187637c0.20085907 -0.031982422 0.3977356 -0.09970856 0.58555603 -0.20143127m5.0545425 2.2049866c-0.1412735 -0.28826904 -0.259552 -0.5963135 -0.35282135 -0.91887665m6.7331314 -0.37545776l0 0c0.072883606 -0.32836914 0.12010956 -0.66633606 0.1408844 -1.008255m4.533928 -2.4823837c0.00944519 -1.6010742 -0.6588669 -3.0670395 -1.7178802 -3.7682114m4.0499954 -4.01733c-0.17150116 0.54519653 -0.4333191 1.0288353 -0.7649307 1.4129906m-1.0842819 -6.632572l0 0c0.02922821 0.22016144 0.042747498 0.44363403 0.040390015 0.66731644m-4.523407 -2.301735l0 0c-0.16020966 0.2565155 -0.29219818 0.5431671 -0.39186096 0.85103226m-3.5057526 -0.34882355l0 0c-0.085372925 0.23299026 -0.14913177 0.47953415 -0.18978882 0.73395157m-4.2752686 0.20075607l0 0c0.24928284 0.19865417 0.47989655 0.4377594 0.68678284 0.712059m-6.0257187 4.1294136l0 0c0.025360107 0.2536316 0.06543732 0.50413513 0.11985016 0.7491684" fill-rule="evenodd"/><path stroke="#000000" stroke-width="1.0" stroke-linejoin="round" stroke-linecap="butt" d="m103.46213 59.39434l0 0c-0.18402863 -1.840229 0.42017365 -3.6619453 1.5562286 -4.6921234c1.136055 -1.0301819 2.6047134 -1.0881577 3.7827759 -0.14932251l0 0c0.41731262 -1.0699883 1.1810989 -1.8087387 2.0603485 -1.9927979c0.87924194 -0.18405914 1.7706757 0.20819473 2.4046478 1.0581055l0 0c0.35549164 -0.97011566 1.053505 -1.6219101 1.846344 -1.7240944c0.7928467 -0.10218048 1.5683136 0.3597107 2.0512314 1.221775l0 0c0.64224243 -1.0283203 1.6640778 -1.4612885 2.6233368 -1.1115532c0.95926666 0.34973907 1.68367 1.4193611 1.8597565 2.7460403l0 0c0.78686523 0.2920494 1.4422989 1.0344734 1.7969742 2.0354538c0.35466766 1.0009842 0.37378693 2.1623306 0.05239868 3.1839867l0 0c0.77482605 1.3721924 0.9560776 3.2006264 0.47611237 4.8029556c-0.47995758 1.6023331 -1.5490341 2.7378387 -2.808258 2.9827576c-0.008872986 1.5038452 -0.61499786 2.883751 -1.5847397 3.6078491c-0.96974945 0.7240982 -2.1516876 0.67931366 -3.0902405 -0.11708832l0 0c-0.39978027 1.801117 -1.5250168 3.126358 -2.8895721 3.4031754c-1.3645554 0.27681732 -2.7238007 -0.54441833 -3.4905014 -2.1088943l0 0c-0.9398041 0.7711334 -2.0674973 0.9932785 -3.1286926 0.6163101c-1.0611877 -0.37696838 -1.9664917 -1.3212891 -2.5116806 -2.6199493l0 0c-0.9603729 0.15292358 -1.888916 -0.52412415 -2.3247986 -1.6951218c-0.43588257 -1.17099 -0.28632355 -2.5866623 0.3744583 -3.5444107l0 0c-0.8566742 -0.68608856 -1.2938004 -2.0475082 -1.083435 -3.37434c0.2103653 -1.3268318 1.0205536 -2.3184052 2.0080795 -2.4576569z" fill-rule="evenodd"/><path stroke="#000000" stroke-width="1.0" stroke-linejoin="round" stroke-linecap="butt" d="m102.5185 65.297264l0 0c0.40426636 0.32376862 0.8712845 0.47063446 1.338356 0.42088318m0.61177063 4.8187637c0.20085907 -0.031982422 0.3977356 -0.09970856 0.58555603 -0.20143127m5.0545425 2.2049866c-0.1412735 -0.28826904 -0.259552 -0.5963135 -0.35282135 -0.91887665m6.7331314 -0.37545776l0 0c0.072883606 -0.32836914 0.12010956 -0.66633606 0.1408844 -1.008255m4.533928 -2.4823837c0.00944519 -1.6010742 -0.6588669 -3.0670395 -1.7178802 -3.7682114m4.0499954 -4.01733c-0.17150116 0.54519653 -0.4333191 1.0288353 -0.7649307 1.4129906m-1.0842819 -6.632572l0 0c0.02922821 0.22016144 0.042747498 0.44363403 0.040390015 0.66731644m-4.523407 -2.301735l0 0c-0.16020966 0.2565155 -0.29219818 0.5431671 -0.39186096 0.85103226m-3.5057526 -0.34882355l0 0c-0.085372925 0.23299026 -0.14913177 0.47953415 -0.18978882 0.73395157m-4.2752686 0.20075607l0 0c0.24928284 0.19865417 0.47989655 0.4377594 0.68678284 0.712059m-6.0257187 4.1294136l0 0c0.025360107 0.2536316 0.06543732 0.50413513 0.11985016 0.7491684" fill-rule="evenodd"/><path fill="#f3efcf" d="m70.49887 50.69618l0 0c-0.18402863 -1.840229 0.42017365 -3.6619453 1.5562286 -4.692127c1.136055 -1.0301781 2.604721 -1.0881538 3.7827835 -0.14932251l0 0c0.417305 -1.0699844 1.1810989 -1.8087349 2.060341 -1.992794c0.8792496 -0.18405914 1.7706757 0.20819092 2.4046478 1.0581055l0 0c0.35549164 -0.97011566 1.053505 -1.6219139 1.8463516 -1.7240944c0.79283905 -0.10218048 1.568306 0.3597107 2.0512238 1.221775l0 0c0.64225006 -1.0283203 1.6640778 -1.4612885 2.6233368 -1.1115532c0.95926666 0.34973907 1.68367 1.4193611 1.8597565 2.7460403l0 0c0.78686523 0.2920494 1.4423065 1.0344734 1.7969742 2.0354538c0.3546753 1.0009842 0.37378693 2.1623306 0.05239868 3.1839867l0 0c0.7748337 1.3721924 0.9560852 3.2006264 0.47612 4.8029594c-0.4799652 1.6023331 -1.5490417 2.737831 -2.808258 2.98275c-0.008880615 1.5038452 -0.61499786 2.8837585 -1.5847473 3.6078568c-0.9697418 0.7240982 -2.15168 0.67930984 -3.0902405 -0.11709595l0 0c-0.39978027 1.801117 -1.5250168 3.126358 -2.8895721 3.4031754c-1.3645554 0.27681732 -2.7238007 -0.5444107 -3.4904938 -2.1088943l0 0c-0.9398117 0.77114105 -2.067505 0.9932785 -3.1287003 0.6163101c-1.0611877 -0.37696838 -1.9664917 -1.3212891 -2.5116806 -2.6199455l0 0c-0.9603653 0.15291977 -1.8889084 -0.52412415 -2.3247986 -1.695118c-0.43588257 -1.1709938 -0.28632355 -2.5866623 0.3744583 -3.5444145l0 0c-0.8566742 -0.68608475 -1.2937927 -2.0475082 -1.083435 -3.37434c0.2103653 -1.3268318 1.0205536 -2.3184052 2.0080795 -2.4576569z" fill-rule="evenodd"/><path fill="#000000" fill-opacity="0.0" d="m69.555244 56.599102l0 0c0.40426636 0.3237648 0.8712921 0.47063446 1.3383636 0.42088318m0.611763 4.8187637c0.20085907 -0.031982422 0.3977356 -0.09970856 0.58556366 -0.20143509m5.054535 2.2049866c-0.1412735 -0.28826904 -0.259552 -0.59630966 -0.35282135 -0.91887665m6.7331314 -0.37545776l0 0c0.072883606 -0.32836914 0.12010956 -0.66633224 0.1408844 -1.0082512m4.533928 -2.4823837c0.00944519 -1.6010742 -0.6588669 -3.0670357 -1.7178726 -3.7682114m4.0499954 -4.01733c-0.17150879 0.54519653 -0.43332672 1.0288353 -0.7649307 1.4129906m-1.0842819 -6.632572l0 0c0.029220581 0.22016144 0.04273987 0.44363403 0.040382385 0.66731644m-4.523407 -2.301735l0 0c-0.16020966 0.2565155 -0.29219818 0.5431671 -0.39186096 0.85103226m-3.505745 -0.34882736l0 0c-0.085380554 0.23299408 -0.14913177 0.47953796 -0.18979645 0.7339554m-4.275261 0.20075607l0 0c0.24927521 0.19865417 0.47988892 0.4377594 0.6867752 0.712059m-6.0257187 4.1294136l0 0c0.025367737 0.2536316 0.06543732 0.50413513 0.11985779 0.7491684" fill-rule="evenodd"/><path stroke="#000000" stroke-width="1.0" stroke-linejoin="round" stroke-linecap="butt" d="m70.49887 50.69618l0 0c-0.18402863 -1.840229 0.42017365 -3.6619453 1.5562286 -4.692127c1.136055 -1.0301781 2.604721 -1.0881538 3.7827835 -0.14932251l0 0c0.417305 -1.0699844 1.1810989 -1.8087349 2.060341 -1.992794c0.8792496 -0.18405914 1.7706757 0.20819092 2.4046478 1.0581055l0 0c0.35549164 -0.97011566 1.053505 -1.6219139 1.8463516 -1.7240944c0.79283905 -0.10218048 1.568306 0.3597107 2.0512238 1.221775l0 0c0.64225006 -1.0283203 1.6640778 -1.4612885 2.6233368 -1.1115532c0.95926666 0.34973907 1.68367 1.4193611 1.8597565 2.7460403l0 0c0.78686523 0.2920494 1.4423065 1.0344734 1.7969742 2.0354538c0.3546753 1.0009842 0.37378693 2.1623306 0.05239868 3.1839867l0 0c0.7748337 1.3721924 0.9560852 3.2006264 0.47612 4.8029594c-0.4799652 1.6023331 -1.5490417 2.737831 -2.808258 2.98275c-0.008880615 1.5038452 -0.61499786 2.8837585 -1.5847473 3.6078568c-0.9697418 0.7240982 -2.15168 0.67930984 -3.0902405 -0.11709595l0 0c-0.39978027 1.801117 -1.5250168 3.126358 -2.8895721 3.4031754c-1.3645554 0.27681732 -2.7238007 -0.5444107 -3.4904938 -2.1088943l0 0c-0.9398117 0.77114105 -2.067505 0.9932785 -3.1287003 0.6163101c-1.0611877 -0.37696838 -1.9664917 -1.3212891 -2.5116806 -2.6199455l0 0c-0.9603653 0.15291977 -1.8889084 -0.52412415 -2.3247986 -1.695118c-0.43588257 -1.1709938 -0.28632355 -2.5866623 0.3744583 -3.5444145l0 0c-0.8566742 -0.68608475 -1.2937927 -2.0475082 -1.083435 -3.37434c0.2103653 -1.3268318 1.0205536 -2.3184052 2.0080795 -2.4576569z" fill-rule="evenodd"/><path stroke="#000000" stroke-width="1.0" stroke-linejoin="round" stroke-linecap="butt" d="m69.555244 56.599102l0 0c0.40426636 0.3237648 0.8712921 0.47063446 1.3383636 0.42088318m0.611763 4.8187637c0.20085907 -0.031982422 0.3977356 -0.09970856 0.58556366 -0.20143509m5.054535 2.2049866c-0.1412735 -0.28826904 -0.259552 -0.59630966 -0.35282135 -0.91887665m6.7331314 -0.37545776l0 0c0.072883606 -0.32836914 0.12010956 -0.66633224 0.1408844 -1.0082512m4.533928 -2.4823837c0.00944519 -1.6010742 -0.6588669 -3.0670357 -1.7178726 -3.7682114m4.0499954 -4.01733c-0.17150879 0.54519653 -0.43332672 1.0288353 -0.7649307 1.4129906m-1.0842819 -6.632572l0 0c0.029220581 0.22016144 0.04273987 0.44363403 0.040382385 0.66731644m-4.523407 -2.301735l0 0c-0.16020966 0.2565155 -0.29219818 0.5431671 -0.39186096 0.85103226m-3.505745 -0.34882736l0 0c-0.085380554 0.23299408 -0.14913177 0.47953796 -0.18979645 0.7339554m-4.275261 0.20075607l0 0c0.24927521 0.19865417 0.47988892 0.4377594 0.6867752 0.712059m-6.0257187 4.1294136l0 0c0.025367737 0.2536316 0.06543732 0.50413513 0.11985779 0.7491684" fill-rule="evenodd"/><path fill="#f3efcf" d="m93.32302 50.69618l0 0c-0.18402863 -1.840229 0.42017365 -3.6619453 1.5562286 -4.692127c1.136055 -1.0301781 2.6047134 -1.0881538 3.7827759 -0.14932251l0 0c0.41731262 -1.0699844 1.1810989 -1.8087349 2.0603485 -1.992794c0.87924194 -0.18405914 1.7706757 0.20819092 2.4046478 1.0581055l0 0c0.35549164 -0.97011566 1.053505 -1.6219139 1.846344 -1.7240944c0.7928467 -0.10218048 1.5683136 0.3597107 2.0512314 1.221775l0 0c0.64224243 -1.0283203 1.6640778 -1.4612885 2.6233368 -1.1115532c0.95926666 0.34973907 1.68367 1.4193611 1.8597565 2.7460403l0 0c0.7868576 0.2920494 1.4422989 1.0344734 1.7969742 2.0354538c0.35466766 1.0009842 0.3737793 2.1623306 0.05239868 3.1839867l0 0c0.77482605 1.3721924 0.9560776 3.2006264 0.47611237 4.8029594c-0.4799652 1.6023331 -1.5490341 2.737831 -2.808258 2.98275c-0.008872986 1.5038452 -0.61499786 2.8837585 -1.5847397 3.6078568c-0.96974945 0.7240982 -2.1516876 0.67930984 -3.090248 -0.11709595l0 0c-0.39977264 1.801117 -1.5250092 3.126358 -2.8895645 3.4031754c-1.3645554 0.27681732 -2.7238007 -0.5444107 -3.4905014 -2.1088943l0 0c-0.9398041 0.77114105 -2.0674973 0.9932785 -3.1286926 0.6163101c-1.0611877 -0.37696838 -1.9664917 -1.3212891 -2.5116882 -2.6199455l0 0c-0.9603653 0.15291977 -1.8889084 -0.52412415 -2.324791 -1.695118c-0.43588257 -1.1709938 -0.28632355 -2.5866623 0.3744583 -3.5444145l0 0c-0.8566742 -0.68608475 -1.2938004 -2.0475082 -1.083435 -3.37434c0.2103653 -1.3268318 1.0205536 -2.3184052 2.0080795 -2.4576569z" fill-rule="evenodd"/><path fill="#000000" fill-opacity="0.0" d="m92.379395 56.599102l0 0c0.40426636 0.3237648 0.8712845 0.47063446 1.338356 0.42088318m0.61177063 4.8187637c0.20085907 -0.031982422 0.3977356 -0.09970856 0.58555603 -0.20143509m5.0545425 2.2049866c-0.1412735 -0.28826904 -0.259552 -0.59630966 -0.35282898 -0.91887665m6.733139 -0.37545776l0 0c0.072883606 -0.32836914 0.12010956 -0.66633224 0.1408844 -1.0082512m4.5339203 -2.4823837c0.00945282 -1.6010742 -0.65885925 -3.0670357 -1.7178726 -3.7682114m4.0499954 -4.01733c-0.17150116 0.54519653 -0.4333191 1.0288353 -0.7649307 1.4129906m-1.0842819 -6.632572l0 0c0.029220581 0.22016144 0.042747498 0.44363403 0.040390015 0.66731644m-4.523407 -2.301735l0 0c-0.16020966 0.2565155 -0.29219818 0.5431671 -0.39186096 0.85103226m-3.5057526 -0.34882736l0 0c-0.085372925 0.23299408 -0.14913177 0.47953796 -0.18979645 0.7339554m-4.275261 0.20075607l0 0c0.24928284 0.19865417 0.47989655 0.4377594 0.68678284 0.712059m-6.0257187 4.1294136l0 0c0.025360107 0.2536316 0.06543732 0.50413513 0.11985016 0.7491684" fill-rule="evenodd"/><path stroke="#000000" stroke-width="1.0" stroke-linejoin="round" stroke-linecap="butt" d="m93.32302 50.69618l0 0c-0.18402863 -1.840229 0.42017365 -3.6619453 1.5562286 -4.692127c1.136055 -1.0301781 2.6047134 -1.0881538 3.7827759 -0.14932251l0 0c0.41731262 -1.0699844 1.1810989 -1.8087349 2.0603485 -1.992794c0.87924194 -0.18405914 1.7706757 0.20819092 2.4046478 1.0581055l0 0c0.35549164 -0.97011566 1.053505 -1.6219139 1.846344 -1.7240944c0.7928467 -0.10218048 1.5683136 0.3597107 2.0512314 1.221775l0 0c0.64224243 -1.0283203 1.6640778 -1.4612885 2.6233368 -1.1115532c0.95926666 0.34973907 1.68367 1.4193611 1.8597565 2.7460403l0 0c0.7868576 0.2920494 1.4422989 1.0344734 1.7969742 2.0354538c0.35466766 1.0009842 0.3737793 2.1623306 0.05239868 3.1839867l0 0c0.77482605 1.3721924 0.9560776 3.2006264 0.47611237 4.8029594c-0.4799652 1.6023331 -1.5490341 2.737831 -2.808258 2.98275c-0.008872986 1.5038452 -0.61499786 2.8837585 -1.5847397 3.6078568c-0.96974945 0.7240982 -2.1516876 0.67930984 -3.090248 -0.11709595l0 0c-0.39977264 1.801117 -1.5250092 3.126358 -2.8895645 3.4031754c-1.3645554 0.27681732 -2.7238007 -0.5444107 -3.4905014 -2.1088943l0 0c-0.9398041 0.77114105 -2.0674973 0.9932785 -3.1286926 0.6163101c-1.0611877 -0.37696838 -1.9664917 -1.3212891 -2.5116882 -2.6199455l0 0c-0.9603653 0.15291977 -1.8889084 -0.52412415 -2.324791 -1.695118c-0.43588257 -1.1709938 -0.28632355 -2.5866623 0.3744583 -3.5444145l0 0c-0.8566742 -0.68608475 -1.2938004 -2.0475082 -1.083435 -3.37434c0.2103653 -1.3268318 1.0205536 -2.3184052 2.0080795 -2.4576569z" fill-rule="evenodd"/><path stroke="#000000" stroke-width="1.0" stroke-linejoin="round" stroke-linecap="butt" d="m92.379395 56.599102l0 0c0.40426636 0.3237648 0.8712845 0.47063446 1.338356 0.42088318m0.61177063 4.8187637c0.20085907 -0.031982422 0.3977356 -0.09970856 0.58555603 -0.20143509m5.0545425 2.2049866c-0.1412735 -0.28826904 -0.259552 -0.59630966 -0.35282898 -0.91887665m6.733139 -0.37545776l0 0c0.072883606 -0.32836914 0.12010956 -0.66633224 0.1408844 -1.0082512m4.5339203 -2.4823837c0.00945282 -1.6010742 -0.65885925 -3.0670357 -1.7178726 -3.7682114m4.0499954 -4.01733c-0.17150116 0.54519653 -0.4333191 1.0288353 -0.7649307 1.4129906m-1.0842819 -6.632572l0 0c0.029220581 0.22016144 0.042747498 0.44363403 0.040390015 0.66731644m-4.523407 -2.301735l0 0c-0.16020966 0.2565155 -0.29219818 0.5431671 -0.39186096 0.85103226m-3.5057526 -0.34882736l0 0c-0.085372925 0.23299408 -0.14913177 0.47953796 -0.18979645 0.7339554m-4.275261 0.20075607l0 0c0.24928284 0.19865417 0.47989655 0.4377594 0.68678284 0.712059m-6.0257187 4.1294136l0 0c0.025360107 0.2536316 0.06543732 0.50413513 0.11985016 0.7491684" fill-rule="evenodd"/></g></svg>